<svg width="383.2358480284181" height="374.215625" viewBox="0 0 298.96304250676155 291.9263486939597" class="looka-1j8o68f"><defs id="SvgjsDefs1572"></defs><g id="SvgjsG1573" featurekey="monogramFeature-0" transform="matrix(5.694534142985934,0,0,5.694534142985934,72.9152598329069,-102.50217936976625)" fill="#000000"><path d="M24 19.134999999999998 l-13.935 0 l0 19.604 l13.935 0 l0 1.1351 l-13.935 0 l0 20.126 l-7.0648 0 l0 -42 l21 0 l0 1.1352 z M8.9226 58.8649 l0.0070314 -39.73 l-4.7944 0 l0 39.73 l4.7874 0 z"></path></g><g id="SvgjsG1574" featurekey="nameFeature-0" transform="matrix(1.1416903092840354,0,0,1.1416903092840354,-3.881748249246518,245.66505575034552)" fill="#000000"><path d="M21.6 12 c0.36 0 0.6 0.24 0.6 0.6 l0 1.16 c0 0.36 -0.24 0.6 -0.6 0.6 l-15.7 0 l0 9.9 l14.78 0 c0.36 0 0.6 0.24 0.6 0.6 l0 1.16 c0 0.36 -0.24 0.6 -0.6 0.6 l-14.78 0 l0 12.78 c0 0.36 -0.24 0.6 -0.6 0.6 l-1.3 0 c-0.36 0 -0.6 -0.24 -0.6 -0.6 l0 -26.8 c0 -0.36 0.24 -0.6 0.6 -0.6 l17.6 0 z M45.93 40.52 c-7.92 0 -14.3 -6.4 -14.3 -14.4 c0 -8.04 6.38 -14.44 14.3 -14.44 c7.88 0 14.26 6.4 14.26 14.44 c0 8 -6.38 14.4 -14.26 14.4 z M45.93 38.22 c6.62 0 11.86 -5.36 11.86 -12.1 c0 -6.78 -5.24 -12.14 -11.86 -12.14 c-6.66 0 -11.9 5.36 -11.9 12.14 c0 6.74 5.24 12.1 11.9 12.1 z M87.82000000000001 37.64 c0.36 0 0.6 0.24 0.6 0.6 l0 1.16 c0 0.36 -0.24 0.6 -0.6 0.6 l-16.7 0 c-0.36 0 -0.6 -0.24 -0.6 -0.6 l0 -26.8 c0 -0.36 0.24 -0.6 0.6 -0.6 l1.3 0 c0.36 0 0.6 0.24 0.6 0.6 l0 25.04 l14.8 0 z M104.61 12 c9.76 0 14.64 6.04 14.64 14 c0 7.94 -4.88 14 -14.64 14 l-5.86 0 c-0.36 0 -0.6 -0.24 -0.6 -0.6 l0 -26.8 c0 -0.36 0.24 -0.6 0.6 -0.6 l5.86 0 z M104.61 37.64 c8.1 0 12.1 -4.48 12.1 -11.64 c0 -7.18 -4 -11.64 -12.1 -11.64 l-3.96 0 l0 23.28 l3.96 0 z M146.38 37.64 c0.36 0 0.6 0.24 0.6 0.6 l0 1.16 c0 0.36 -0.24 0.6 -0.6 0.6 l-16.9 0 c-0.36 0 -0.6 -0.24 -0.6 -0.6 l0 -26.8 c0 -0.36 0.24 -0.6 0.6 -0.6 l16.86 0 c0.36 0 0.6 0.24 0.6 0.6 l0 1.16 c0 0.36 -0.24 0.6 -0.6 0.6 l-14.96 0 l0 9.62 l13.86 0 c0.36 0 0.6 0.24 0.6 0.6 l0 1.16 c0 0.36 -0.24 0.6 -0.6 0.6 l-13.86 0 l0 11.3 l15 0 z M171.13 28.7 l5.6 10.6 c0.22 0.42 0.02 0.7 -0.44 0.7 l-1.48 0 c-0.32 0 -0.54 -0.14 -0.7 -0.44 l-5.56 -10.58 l-0.58 0 l-8.06 0 l0 10.42 c0 0.36 -0.24 0.6 -0.6 0.6 l-1.3 0 c-0.36 0 -0.6 -0.24 -0.6 -0.6 l0 -26.8 c0 -0.36 0.24 -0.6 0.6 -0.6 l9.96 0 c6.7 0 9.44 3.12 9.44 8.48 c0 4.44 -1.86 7.34 -6.28 8.22 z M159.91 26.619999999999997 l8.2 0 c3.98 0 6.84 -1.16 6.84 -6.14 s-2.86 -6.12 -6.84 -6.12 l-8.2 0 l0 12.26 z M205.24 37.64 c0.36 0 0.6 0.24 0.6 0.6 l0 1.16 c0 0.36 -0.24 0.6 -0.6 0.6 l-17.9 0 c-0.36 0 -0.6 -0.24 -0.6 -0.6 l0 -1.36 c0 -0.28 0.08 -0.48 0.24 -0.72 l15.58 -22.96 l-14.82 0 c-0.36 0 -0.6 -0.24 -0.6 -0.6 l0 -1.16 c0 -0.36 0.24 -0.6 0.6 -0.6 l17.1 0 c0.36 0 0.6 0.24 0.6 0.6 l0 1.36 c0 0.28 -0.08 0.48 -0.24 0.72 l-15.58 22.96 l15.62 0 z M234.07000000000002 37.64 c0.36 0 0.6 0.24 0.6 0.6 l0 1.16 c0 0.36 -0.24 0.6 -0.6 0.6 l-16.9 0 c-0.36 0 -0.6 -0.24 -0.6 -0.6 l0 -26.8 c0 -0.36 0.24 -0.6 0.6 -0.6 l16.86 0 c0.36 0 0.6 0.24 0.6 0.6 l0 1.16 c0 0.36 -0.24 0.6 -0.6 0.6 l-14.96 0 l0 9.62 l13.86 0 c0.36 0 0.6 0.24 0.6 0.6 l0 1.16 c0 0.36 -0.24 0.6 -0.6 0.6 l-13.86 0 l0 11.3 l15 0 z M264.66 12 c0.36 0 0.6 0.24 0.6 0.6 l0 26.8 c0 0.3 -0.18 0.52 -0.44 0.58 l0 0.02 l-2.1 0 c-0.32 0 -0.56 -0.12 -0.72 -0.4 l-14.4 -24.18 l0 23.98 c0 0.36 -0.24 0.6 -0.6 0.6 l-1.3 0 c-0.36 0 -0.6 -0.24 -0.6 -0.6 l0 -26.8 c0 -0.32 0.18 -0.54 0.46 -0.58 l0 -0.02 l2.08 0 c0.32 0 0.56 0.12 0.72 0.4 l14.4 24.14 l0 -23.94 c0 -0.36 0.24 -0.6 0.6 -0.6 l1.3 0 z"></path></g></svg>